<svg xmlns="http://www.w3.org/2000/svg" viewBox="0 0 184.94 169.52"><defs><style>.cls-1{fill:#fff;}.cls-1,.cls-2{stroke:#000;stroke-linecap:round;stroke-linejoin:round;stroke-width:4.06px;}.cls-2{fill:none;}</style></defs><title>paperLeft</title><g id="Layer_2" data-name="Layer 2"><g id="svg32847"><g id="layer1"><g id="g5439"><g id="g3915-6-1-6-3-8-9-4"><path id="path3894-6-1-0-5-5-2-9" class="cls-1" d="M18.53,112.09c-8,3.78-12.24-1.87-15.06-9.2-4-10.35,1-34.42,6.9-42.23C15.8,53.5,23,50.83,28.51,55.08"/><path id="path3112-2-8-6-8-2-9-8" class="cls-1" d="M79.79,3.29c-9.3-6-17.17,10.36-22.55,28.61-2.09,7.08-27.89,18.75-35.47,35-4.93,10.6-8.46,35.41-2.92,44.87,9.5,16.18,23,25.27,40.24,30.55a80.61,80.61,0,0,0,19.11,3.18c19.28.84,64.05,22.73,69.1,21.93,14-2.21,7.68-18.84-.75-23.05-4.08-2-32.28-20.53-26.56-20,14,1.24,30.78,4.42,46.42,8.33,23.41,5.86,20.89-27.94-1.09-33.2-10.29-2.46-18.59-5.72-41.69-10.68,13-2.54,31.73-7.12,44.45-8,21-1.42,11.71-32.26-13.9-30-17.44,1.56-48.56,7.8-78.1,3.23,10.83-10.53,31.76-32.78,3.71-50.82Z"/><path id="path3882-6-1-33-9-9-7-9" d="M124.42,86.16C108.53,88.26,100.86,93,97,94.62c9.92-1.59,12.4-2.25,23.12-3.15a22.1,22.1,0,0,1,6.53.54Z"/><path id="path3884-6-1-2-9-6-6-0" d="M120.16,121.9c-9.37-.82-20.85.44-28.23,3.21,5.12.37,13.92.93,21.71,1.35a9.57,9.57,0,0,1,6.24,2.71c-.42-2.43,0-4.84.28-7.27Z"/><path id="path3886-8-5-4-3-7-0-8" class="cls-2" d="M29.09,101c11.34,6.18,14.76,6.47,20.65,8.59"/><path id="path3888-4-4-9-8-4-7-4" class="cls-2" d="M29.44,89.45C43.27,93,50.26,93.39,59.69,94.91"/><path id="path3890-1-8-5-1-8-9-7" class="cls-2" d="M30.26,75.65c9.76,1.14,14.47.77,20.74.87"/></g></g></g></g></g></svg>