<svg xmlns="http://www.w3.org/2000/svg" viewBox="0 0 184.94 169.52"><defs><style>.cls-1{fill:#fff;}.cls-1,.cls-2{stroke:#000;stroke-linecap:round;stroke-linejoin:round;stroke-width:4.06px;}.cls-2{fill:none;}</style></defs><title>paperRight</title><g id="Layer_2" data-name="Layer 2"><g id="svg32847"><g id="layer1"><g id="g5439"><g id="g3915-6-1-6-3-8-9-4"><path id="path3894-6-1-0-5-5-2-9" class="cls-1" d="M156.43,55.08c5.54-4.25,12.72-1.58,18.14,5.58,5.91,7.81,10.9,31.88,6.91,42.23-2.83,7.33-7.09,13-15.07,9.2"/><path id="path3112-2-8-6-8-2-9-8" class="cls-1" d="M105.15,3.29c-28,18-7.11,40.29,3.71,50.82-29.54,4.57-60.66-1.67-78.1-3.23-25.61-2.28-34.87,28.56-13.9,30,12.72.87,31.47,5.45,44.46,8-23.1,5-31.41,8.22-41.7,10.68-22,5.26-24.5,39.06-1.09,33.2,15.64-3.91,32.39-7.09,46.43-8.33,5.71-.51-22.48,18-26.57,20-8.42,4.21-14.77,20.84-.74,23.05,5.05.8,49.81-21.09,69.1-21.93a80.53,80.53,0,0,0,19.1-3.18c17.28-5.28,30.75-14.37,40.24-30.55,5.54-9.46,2-34.27-2.92-44.87-7.57-16.29-33.38-28-35.47-35-5.38-18.25-13.24-34.6-22.54-28.61Z"/><path id="path3882-6-1-33-9-9-7-9" d="M58.26,92a22.12,22.12,0,0,1,6.53-.54c10.72.9,13.2,1.56,23.13,3.15-3.83-1.65-11.51-6.36-27.4-8.46Z"/><path id="path3884-6-1-2-9-6-6-0" d="M64.79,121.9c.25,2.43.69,4.84.28,7.27a9.53,9.53,0,0,1,6.24-2.71c7.79-.42,16.59-1,21.7-1.35-7.37-2.77-18.86-4-28.22-3.21Z"/><path id="path3886-8-5-4-3-7-0-8" class="cls-2" d="M135.2,109.62c5.9-2.12,9.32-2.41,20.65-8.59"/><path id="path3888-4-4-9-8-4-7-4" class="cls-2" d="M125.26,94.91c9.43-1.52,16.41-1.91,30.25-5.46"/><path id="path3890-1-8-5-1-8-9-7" class="cls-2" d="M133.94,76.52c6.27-.1,11,.27,20.74-.87"/></g></g></g></g></g></svg>