<svg xmlns="http://www.w3.org/2000/svg" viewBox="0 0 136.26 116.2"><defs><style>.cls-1{fill:#fff;}.cls-1,.cls-2{stroke:#000;stroke-linecap:round;stroke-linejoin:round;stroke-width:4.06px;}.cls-2{fill:none;}</style></defs><title>rockLeft</title><g id="Layer_2" data-name="Layer 2"><g id="svg32847"><g id="layer1"><g id="g32290"><path id="path32292" class="cls-1" d="M30.63,20.45C25.26,15.89,18,18.18,12.19,25,5.88,32.49-.42,56.25,3,66.81c2.42,7.47,6.34,13.35,14.48,10"/><path id="path32294" class="cls-1" d="M108.78,27.68c22.16-5.89,34.72,19.1,14.94,31.72,14.9,2.54,14.74,33.45-5.59,35.29.15,16.71-18.79,21.4-42.84,18.81a80.94,80.94,0,0,1-18.89-4.21c-17-6.23-30-16.05-38.51-32.73-5.05-9.74,0-34.25,5.29-44.65C33.64,11.81,66.42-1.32,85.34,2.78,105,7.05,106.64,23.84,108.78,27.68Z"/><path id="path32296" d="M122.61,61.81a9.84,9.84,0,0,1,2.85.73l.1-7.61a14.33,14.33,0,0,1-5.83,2.45c-10.55,2.09-13.12,2.13-23.14,3.35,4.19.52,10.16,3.44,26,1.08Z"/><path id="path32298" d="M119.69,97c-1.93-4.73-1.91-4.76-1.91-4.74-7.79,0-21.14,1.26-26.31,1.39,7.23,3.12,18.82,3.73,28.22,3.35Z"/><path id="path32300" class="cls-2" d="M48.76,76.06c-5.72-2.43-9.13-2.91-20.13-9.71"/><path id="path32302" class="cls-2" d="M59.51,61.93c-9.28-2-16.26-2.81-29.9-7.12"/><path id="path32304" class="cls-2" d="M51.81,43.08c-6.16-.43-10.92-.32-20.62-2"/><path id="path32306" d="M110.41,25.1,109,30.18c-24.48.18-26.77-8.91-36.46-16.88,9.67,5.78,16.7,13.26,37.86,11.8Z"/></g></g></g></g></svg>