<svg xmlns="http://www.w3.org/2000/svg" viewBox="0 0 183.03 128.54"><defs><style>.cls-1{fill:#fff;}.cls-1,.cls-2{stroke:#000;stroke-linecap:round;stroke-linejoin:round;stroke-width:4.06px;}.cls-2{fill:none;}</style></defs><title>scissorsRight</title><g id="Layer_2" data-name="Layer 2"><g id="svg32847"><g id="layer1"><g id="imagebot_10" data-name="imagebot 10"><path id="imagebot_18" data-name="imagebot 18" class="cls-1" d="M143.48,10.64c4.2-5.67,11.76-5.08,19,.26,7.84,5.84,19.39,27.54,18.46,38.6-.65,7.82-3.13,14.44-11.82,13"/><path id="imagebot_17" data-name="imagebot 17" class="cls-1" d="M86.19,5.87C68,14.49,70.23,31.22,69,35.45c-16.4,3.16-30.13,3-47.31,6.42-25.23,5-25.46,37.19-4.93,32.67,12.45-2.73,31.73-3.6,44.91-4.81-20.78,11.24-27.84,16.71-37,22-19.62,11.21-12.56,44.36,8.26,32.17,13.92-8.14,29.1-15.9,42.23-21,7.31,4.69,25.38,15.3,46,8.58A81.16,81.16,0,0,0,138.6,103c15.09-9.92,25.53-22.44,30.06-40.63,2.69-10.64-7.81-33.35-15.32-42.28C138.59,2.9,103.68-2.43,86.19,5.87Z"/><path id="imagebot_16" data-name="imagebot 16" d="M59.68,73.61a21.85,21.85,0,0,1,6.12-2.35c10.54-2.15,13.11-2.21,23.12-3.49-4.19-.49-12.88-2.86-28.72-.41Z"/><path id="imagebot_15" data-name="imagebot 15" d="M74.33,100.47C75.26,102.72,76,105,76,105c9.19-3.13,16.75-5.9,26.32-9.41-7.85-.59-19.23,1.43-28,4.85Z"/><path id="imagebot_14" data-name="imagebot 14" class="cls-2" d="M138.47,68.92c5-3.68,8.24-4.92,17.41-14"/><path id="imagebot_13" data-name="imagebot 13" class="cls-2" d="M124.79,57.6c8.58-4.09,15.19-6.44,27.51-13.73"/><path id="imagebot_12" data-name="imagebot 12" class="cls-2" d="M128,37.49c5.91-1.82,10.56-2.8,19.63-6.64"/><path id="imagebot_11" data-name="imagebot 11" d="M66.85,33.31l2.52,4.62c23.88-5.39,24-14.75,31.66-24.72-8.1,7.82-13.24,16.7-34.18,20.1Z"/></g></g></g></g></svg>